<?xml version="1.0" standalone="no"?>
<!DOCTYPE svg PUBLIC "-//W3C//DTD SVG 20010904//EN"
 "http://www.w3.org/TR/2001/REC-SVG-20010904/DTD/svg10.dtd">
<svg version="1.0" xmlns="http://www.w3.org/2000/svg"
 width="800.000000pt" height="800.000000pt" viewBox="0 0 800.000000 800.000000"
 preserveAspectRatio="xMidYMid meet">
<metadata>
Created by potrace 1.14, written by Peter Selinger 2001-2017
</metadata>
<g transform="translate(0.000000,800.000000) scale(0.100000,-0.100000)"
fill="#000000" stroke="none">
<path d="M3998 7996 c-1 -2 -77 -6 -168 -10 -91 -4 -176 -8 -190 -10 -14 -2
-56 -7 -94 -11 -66 -7 -81 -9 -151 -20 -16 -2 -48 -7 -70 -10 -22 -4 -47 -8
-55 -10 -8 -3 -33 -7 -55 -11 -22 -3 -43 -8 -46 -10 -3 -2 -21 -6 -40 -9 -128
-22 -398 -105 -594 -182 -724 -284 -1354 -782 -1811 -1428 -160 -226 -304
-487 -413 -750 -23 -55 -46 -109 -51 -120 -15 -32 -86 -252 -115 -355 -31
-111 -27 -91 -60 -250 -26 -126 -32 -161 -39 -215 -2 -16 -7 -46 -10 -65 -6
-36 -10 -69 -23 -220 -16 -170 -8 -627 12 -775 2 -16 6 -48 9 -70 22 -183 62
-370 129 -615 91 -329 301 -773 518 -1097 177 -263 433 -556 659 -753 41 -36
80 -69 86 -75 84 -75 246 -195 379 -282 55 -36 112 -74 127 -84 15 -10 30 -19
34 -19 3 0 34 -17 68 -37 176 -107 625 -303 776 -338 3 0 30 -8 60 -18 66 -19
283 -74 325 -81 17 -3 68 -12 115 -20 47 -8 103 -18 125 -21 22 -3 65 -9 95
-14 56 -10 910 -8 965 1 17 3 50 9 75 12 25 4 56 9 70 11 14 3 39 7 55 10 26
4 69 12 164 31 159 32 429 115 633 195 317 125 746 371 968 556 8 7 58 47 110
90 150 122 411 387 559 568 183 224 373 534 520 846 104 222 237 631 276 849
22 125 54 337 62 405 16 160 7 873 -12 905 -2 3 -6 30 -9 60 -6 57 -10 78 -27
170 -6 30 -13 69 -16 85 -8 48 -80 325 -98 380 -77 232 -138 381 -225 560 -52
105 -78 155 -141 265 -20 36 -214 331 -233 355 -9 11 -30 38 -47 60 -406 527
-943 952 -1544 1220 -214 96 -515 197 -715 241 -115 26 -264 54 -310 59 -25 3
-54 8 -65 10 -11 2 -49 7 -85 10 -36 4 -78 8 -95 10 -16 2 -100 7 -185 10 -85
4 -160 8 -167 10 -6 2 -13 2 -15 1z"/>
</g>
</svg>
